<?xml version="1.0" encoding="UTF-8"?>
<svg width="60px" height="60px" viewBox="0 0 60 60" version="1.1" xmlns="http://www.w3.org/2000/svg" xmlns:xlink="http://www.w3.org/1999/xlink">
    <!-- Generator: Sketch 52.2 (67145) - http://www.bohemiancoding.com/sketch -->
    <title>icon19</title>
    <desc>Created with Sketch.</desc>
    <g id="Page-1" stroke="none" stroke-width="1" fill="none" fill-rule="evenodd">
        <g id="关于我们1" transform="translate(-1211.000000, -354.000000)">
            <g id="icon19" transform="translate(1211.000000, 354.000000)">
                <circle id="Oval-Copy" fill="#F77441" cx="30" cy="30" r="30"></circle>
                <path d="M45,20.723064 C45,21.620631 44.72625,22.479958 44.17875,23.2973212 C43.6312969,24.1144934 42.9486562,24.8134604 42.1349531,25.3939835 C37.9387031,28.361526 35.32875,30.2062623 34.3013438,30.9357832 C34.1887031,31.0159871 33.9525,31.1916239 33.5887031,31.4551509 C33.2250469,31.7225448 32.9249062,31.9401932 32.6850469,32.1044679 C32.445,32.2685994 32.1525938,32.4519224 31.8149531,32.6620756 C31.4737969,32.8683141 31.1512031,33.0210833 30.8549062,33.1202879 C30.5513438,33.2234071 30.27375,33.2732003 30.0186562,33.2732003 L29.9813438,33.2732003 C29.7224062,33.2732003 29.445,33.2234071 29.1450938,33.1202879 C28.8412969,33.0171686 28.5225,32.8643994 28.1850469,32.6620756 C27.84375,32.4558372 27.555,32.2725141 27.3149531,32.1044679 C27.0750938,31.9401932 26.7712969,31.7225448 26.4112969,31.4551509 C26.0475,31.1916239 25.8112969,31.0159871 25.6986562,30.9357832 C24.6862969,30.2062623 23.2199531,29.1712507 21.3112969,27.8231577 C19.4025938,26.4748736 18.25875,25.6690636 17.8800469,25.3902598 C17.1862969,24.9128559 16.5337031,24.2558527 15.9225,23.4234035 C15.3074531,22.5944394 15,21.8155073 15,21.1012633 C15,20.2150585 15.2325469,19.4780901 15.6937969,18.8860139 C16.1550469,18.2940808 16.8187969,18 17.6775469,18 L42.3224531,18 C43.04625,18 43.6763438,18.2674417 44.2049531,18.7981715 C44.7374063,19.3330071 45,19.9744947 45,20.723064 Z M45,25.7376666 L45,39.276936 C45,40.0254576 44.7374062,40.6671839 44.2162969,41.2018285 C43.6911562,41.7364731 43.0612969,42 42.3262969,42 L17.6812031,42 C16.94625,42 16.3161562,41.7327493 15.7912031,41.2018285 C15.2625938,40.6709076 15.0036563,40.0254576 15.0036563,39.276936 L15.0036563,25.7376666 C15.4949531,26.2954653 16.0612969,26.7879551 16.695,27.2233952 C20.73375,30.0192155 23.50875,31.982157 25.01625,33.1049632 C25.6537969,33.5823671 26.1674062,33.9566517 26.5649531,34.2203696 C26.9587969,34.4875726 27.4874063,34.7626527 28.1475,35.0375418 C28.8074531,35.3163457 29.4188438,35.4539812 29.9888438,35.4539812 L30.0262031,35.4539812 C30.5962031,35.4539812 31.2075938,35.312622 31.8675,35.0375418 C32.5275938,34.758738 33.0525469,34.4838488 33.4500938,34.2203696 C33.84375,33.9566517 34.3612031,33.5823671 34.9987969,33.1049632 C36.8962969,31.7072679 39.6749062,29.7441354 43.335,27.2233952 C43.96125,26.7765929 44.5200938,26.2839121 45,25.7376666 Z" id="Fill-1" fill="#FFFFFF"></path>
            </g>
        </g>
    </g>
</svg>