<?xml version="1.0" encoding="UTF-8"?>
<svg width="60px" height="60px" viewBox="0 0 60 60" version="1.1" xmlns="http://www.w3.org/2000/svg" xmlns:xlink="http://www.w3.org/1999/xlink">
    <!-- Generator: Sketch 52.2 (67145) - http://www.bohemiancoding.com/sketch -->
    <title>icon18</title>
    <desc>Created with Sketch.</desc>
    <g id="Page-1" stroke="none" stroke-width="1" fill="none" fill-rule="evenodd">
        <g id="关于我们1" transform="translate(-655.000000, -354.000000)">
            <g id="icon18" transform="translate(655.000000, 354.000000)">
                <circle id="Oval" fill="#F77441" cx="30" cy="30" r="30"></circle>
                <g id="Group" transform="translate(14.000000, 13.000000)" fill="#FFFFFF">
                    <path d="M17.028575,0.591148944 C17.0324194,0.17978295 16.6144146,-0.103711207 16.2162725,0.0360893447 L3.16886414,4.77568242 C2.9324334,4.85953281 2.77456647,5.08313383 2.77456647,5.33054238 L2.77456647,28.1938471 L17.0286013,28.1938471 L17.028575,0.591148944 Z M8.96893355,23.6500047 C8.96893355,24.1411284 8.56674992,24.5404159 8.06214748,24.5404159 L6.47707086,24.5404159 C5.97631282,24.5404159 5.57023551,24.1450214 5.57023551,23.6500047 L5.57023551,23.0590591 C5.57023551,22.5679355 5.97241913,22.1686479 6.47707086,22.1686479 L8.06214748,22.1686479 C8.56290552,22.1686479 8.96893355,22.5638428 8.96893355,23.0590591 L8.96893355,23.6500047 Z M8.96893355,20.1841389 C8.96893355,20.6752626 8.56674992,21.0745501 8.06214748,21.0745501 L6.47707086,21.0745501 C5.97631282,21.0745501 5.57023551,20.6793553 5.57023551,20.1841389 L5.57023551,19.5931933 C5.57023551,19.1020696 5.97241913,18.7027821 6.47707086,18.7027821 L8.06214748,18.7027821 C8.56290552,18.7027821 8.96893355,19.0981766 8.96893355,19.5931933 L8.96893355,20.1841389 Z M8.96893355,16.5386935 C8.96893355,17.0297673 8.56674992,17.4290548 8.06214748,17.4290548 L6.47707086,17.4290548 C5.97631282,17.4290548 5.57023551,17.0337102 5.57023551,16.5386935 L5.57023551,15.9477479 C5.57023551,15.4566243 5.97241913,15.0573367 6.47707086,15.0573367 L8.06214748,15.0573367 C8.56290552,15.0573367 8.96893355,15.4525316 8.96893355,15.9477479 L8.96893355,16.5386935 Z M8.96893355,12.9649702 C8.96893355,13.4560938 8.56674992,13.8553814 8.06214748,13.8553814 L6.47707086,13.8553814 C5.97631282,13.8553814 5.57023551,13.4601865 5.57023551,12.9649702 L5.57023551,12.3740246 C5.57023551,11.8829009 5.97241913,11.4836134 6.47707086,11.4836134 L8.06214748,11.4836134 C8.56290552,11.4836134 8.96893355,11.8790079 8.96893355,12.3740246 L8.96893355,12.9649702 Z M8.96893355,9.39538941 C8.96893355,9.88646318 8.56674992,10.2857507 8.06214748,10.2857507 L6.47707086,10.2857507 C5.97631282,10.2857507 5.57023551,9.89055588 5.57023551,9.39538941 L5.57023551,8.80444385 C5.57023551,8.31332016 5.97241913,7.91403262 6.47707086,7.91403262 L8.06214748,7.91403262 C8.56290552,7.91403262 8.96893355,8.30942711 8.96893355,8.80444385 L8.96893355,9.39538941 Z M14.3235452,23.6500047 C14.3235452,24.1411284 13.9213615,24.5404159 13.4167098,24.5404159 L11.8316332,24.5404159 C11.3308751,24.5404159 10.9248471,24.1450214 10.9248471,23.6500047 L10.9248471,23.0590591 C10.9248471,22.5679355 11.3268336,22.1686479 11.8316332,22.1686479 L13.4167098,22.1686479 C13.9175171,22.1686479 14.3235452,22.5638428 14.3235452,23.0590591 L14.3235452,23.6500047 Z M14.3235452,20.1841389 C14.3235452,20.6752626 13.9213615,21.0745501 13.4167098,21.0745501 L11.8316332,21.0745501 C11.3308751,21.0745501 10.9248471,20.6793553 10.9248471,20.1841389 L10.9248471,19.5931933 C10.9248471,19.1020696 11.3268336,18.7027821 11.8316332,18.7027821 L13.4167098,18.7027821 C13.9175171,18.7027821 14.3235452,19.0981766 14.3235452,19.5931933 L14.3235452,20.1841389 Z M14.3235452,16.5386935 C14.3235452,17.0297673 13.9213615,17.4290548 13.4167098,17.4290548 L11.8316332,17.4290548 C11.3308751,17.4290548 10.9248471,17.0337102 10.9248471,16.5386935 L10.9248471,15.9477479 C10.9248471,15.4566243 11.3268336,15.0573367 11.8316332,15.0573367 L13.4167098,15.0573367 C13.9175171,15.0573367 14.3235452,15.4525316 14.3235452,15.9477479 L14.3235452,16.5386935 Z M14.3235452,12.9649702 C14.3235452,13.4560938 13.9213615,13.8553814 13.4167098,13.8553814 L11.8316332,13.8553814 C11.3308751,13.8553814 10.9248471,13.4601865 10.9248471,12.9649702 L10.9248471,12.3740246 C10.9248471,11.8829009 11.3268336,11.4836134 11.8316332,11.4836134 L13.4167098,11.4836134 C13.9175171,11.4836134 14.3235452,11.8790079 14.3235452,12.3740246 L14.3235452,12.9649702 Z M14.3235452,9.39538941 C14.3235452,9.88646318 13.9213615,10.2857507 13.4167098,10.2857507 L11.8316332,10.2857507 C11.3308751,10.2857507 10.9248471,9.89055588 10.9248471,9.39538941 L10.9248471,8.80444385 C10.9248471,8.31332016 11.3268336,7.91403262 11.8316332,7.91403262 L13.4167098,7.91403262 C13.9175171,7.91403262 14.3235452,8.30942711 14.3235452,8.80444385 L14.3235452,9.39538941 Z M14.3235452,5.90960914 C14.3235452,6.40073282 13.9213615,6.80002037 13.4167098,6.80002037 L11.8316332,6.80002037 C11.3308751,6.80002037 10.9248471,6.40482552 10.9248471,5.90960914 L10.9248471,5.31866357 C10.9248471,4.82753989 11.3268336,4.42825235 11.8316332,4.42825235 L13.4167098,4.42825235 C13.9175171,4.42825235 14.3235452,4.82364684 14.3235452,5.31866357 L14.3235452,5.90960914 Z M27.8322818,8.55683566 C27.8361262,8.33727742 27.713894,8.13763364 27.5207867,8.03371906 L18.9684703,3.49786245 C18.5662866,3.28224718 18.077259,3.57372709 18.077259,4.02097905 L18.077259,28.1977401 L27.8323699,28.1977401 L27.8322818,8.55683566 Z M24.5358055,23.6500047 C24.5358055,24.1411284 24.133819,24.5404159 23.6290194,24.5404159 L22.0439428,24.5404159 C21.5431355,24.5404159 21.1371074,24.1450214 21.1371074,23.6500047 L21.1371074,23.0590591 C21.1371074,22.5679355 21.5392911,22.1686479 22.0439428,22.1686479 L23.6290194,22.1686479 C24.1297774,22.1686479 24.5358055,22.5638428 24.5358055,23.0590591 L24.5358055,23.6500047 Z M24.5358055,20.1841389 C24.5358055,20.6752626 24.133819,21.0745501 23.6290194,21.0745501 L22.0439428,21.0745501 C21.5431355,21.0745501 21.1371074,20.6793553 21.1371074,20.1841389 L21.1371074,19.5931933 C21.1371074,19.1020696 21.5392911,18.7027821 22.0439428,18.7027821 L23.6290194,18.7027821 C24.1297774,18.7027821 24.5358055,19.0981766 24.5358055,19.5931933 L24.5358055,20.1841389 Z M24.5358055,16.5386935 C24.5358055,17.0297673 24.133819,17.4290548 23.6290194,17.4290548 L22.0439428,17.4290548 C21.5431355,17.4290548 21.1371074,17.0337102 21.1371074,16.5386935 L21.1371074,15.9477479 C21.1371074,15.4566243 21.5392911,15.0573367 22.0439428,15.0573367 L23.6290194,15.0573367 C24.1297774,15.0573367 24.5358055,15.4525316 24.5358055,15.9477479 L24.5358055,16.5386935 Z M24.5358055,12.9649702 C24.5358055,13.4560938 24.133819,13.8553814 23.6290194,13.8553814 L22.0439428,13.8553814 C21.5431355,13.8553814 21.1371074,13.4601865 21.1371074,12.9649702 L21.1371074,12.3740246 C21.1371074,11.8829009 21.5392911,11.4836134 22.0439428,11.4836134 L23.6290194,11.4836134 C24.1297774,11.4836134 24.5358055,11.8790079 24.5358055,12.3740246 L24.5358055,12.9649702 Z M24.5358055,9.39538941 C24.5358055,9.88646318 24.133819,10.2857507 23.6290194,10.2857507 L22.0439428,10.2857507 C21.5431355,10.2857507 21.1371074,9.89055588 21.1371074,9.39538941 L21.1371074,8.80444385 C21.1371074,8.31332016 21.5392911,7.91403262 22.0439428,7.91403262 L23.6290194,7.91403262 C24.1297774,7.91403262 24.5358055,8.30942711 24.5358055,8.80444385 L24.5358055,9.39538941 Z" id="Fill-1"></path>
                    <path d="M29.3993668,31 L0.600633233,31 C0.268753735,31 0,30.6829565 0,30.2984317 L0,28.8993084 C0,28.5147836 0.268753735,28.1977401 0.600633233,28.1977401 L29.3993668,28.1977401 C29.7314438,28.1977401 30,28.5147836 30,28.8993084 L30,30.2984317 C30,30.6868211 29.7314438,31 29.3993668,31 Z" id="Fill-3"></path>
                </g>
            </g>
        </g>
    </g>
</svg>