<?xml version="1.0" encoding="UTF-8"?>
<svg width="178px" height="48px" viewBox="0 0 178 48" version="1.1" xmlns="http://www.w3.org/2000/svg" xmlns:xlink="http://www.w3.org/1999/xlink">
    <!-- Generator: Sketch 52.2 (67145) - http://www.bohemiancoding.com/sketch -->
    <title>logo-wowo</title>
    <desc>Created with Sketch.</desc>
    <defs>
        <polygon id="path-1" points="0.0306431964 0.278856956 5.43759411 0.278856956 5.43759411 4.498127 0.0306431964 4.498127"></polygon>
        <polygon id="path-3" points="0 47.4860884 177.902406 47.4860884 177.902406 0.231021277 0 0.231021277"></polygon>
        <path d="M12.0026187,0.231021277 C5.37350245,0.231021277 0,5.60481506 0,12.2336399 L0,35.4834697 C0,42.1125859 5.37350245,47.4860884 12.0026187,47.4860884 L35.2524484,47.4860884 C41.8812733,47.4860884 47.2550671,42.1125859 47.2550671,35.4834697 L47.2550671,12.2336399 C47.2550671,5.60481506 41.8812733,0.231021277 35.2524484,0.231021277 L12.0026187,0.231021277 Z" id="path-5"></path>
        <linearGradient x1="50.0000002%" y1="104.0264%" x2="50.0000002%" y2="1.01439568%" id="linearGradient-7">
            <stop stop-color="#E84D31" offset="0%"></stop>
            <stop stop-color="#EF8336" offset="100%"></stop>
        </linearGradient>
        <path d="M0.020101473,1.09218003 C0.0340851064,1.4036072 0.0996333879,1.8548707 0.684324059,2.47655974 C0.883008183,2.68660556 1.17870376,2.91704419 1.59442553,3.10407529 C2.00985597,2.92228805 2.30846481,2.69680196 2.51093617,2.48908674 C3.10436661,1.88079869 3.17574141,1.42574795 3.19351227,1.11461211 C3.21507038,0.728314239 3.02337807,0.258988543 2.44859247,0.254618658 C1.94226841,0.252288052 1.75756792,0.630428805 1.60695254,0.885338789 C1.46128969,0.630428805 1.28241571,0.247918167 0.775800327,0.242091653 C0.774343699,0.242091653 0.773178396,0.242091653 0.771721768,0.242091653 C0.200140753,0.242091653 0.00262193126,0.707047463 0.020101473,1.09218003" id="path-8"></path>
        <linearGradient x1="50.0028614%" y1="757.738757%" x2="50.0028614%" y2="-29.0227504%" id="linearGradient-10">
            <stop stop-color="#D63815" offset="0%"></stop>
            <stop stop-color="#E9591F" offset="100%"></stop>
        </linearGradient>
        <path d="M0.2199509,1.05692962 C0.231312602,1.36835679 0.296278232,1.8219509 0.882716858,2.44160065 C1.08110966,2.65048118 1.37826187,2.88179378 1.79107038,3.0667856 L1.79107038,3.0691162 L1.79107038,3.0667856 C2.20708347,2.88762029 2.50773159,2.66184288 2.70350245,2.45412766 C3.29955483,1.84583961 3.37005565,1.39078887 3.3910311,1.0793617 C3.41229787,0.693355155 3.22206219,0.22402946 2.64785925,0.219368249 C2.13891326,0.217037643 1.958,0.597509002 1.80621931,0.850379705 C1.65968249,0.594013093 1.48080851,0.212667758 0.972736498,0.20713257 C0.971279869,0.20713257 0.969823241,0.20713257 0.968366612,0.20713257 C0.399116203,0.20713257 0.199849427,0.668592471 0.2199509,1.05692962" id="path-11"></path>
        <linearGradient x1="50.0019517%" y1="748.627062%" x2="50.0019517%" y2="-37.9684843%" id="linearGradient-13">
            <stop stop-color="#D63815" offset="0%"></stop>
            <stop stop-color="#E9591F" offset="100%"></stop>
        </linearGradient>
        <path d="M10.3752733,0.216454992 C9.58345008,1.55247463 8.60255646,1.63958101 8.60255646,1.63958101 C8.60255646,1.63958101 7.37986252,1.39574141 6.81381669,0.216454992 L1.93818985,0.216454992 C0.954091653,0.216454992 0.150032733,1.06712602 0.150032733,2.12026841 L0.150032733,2.82323732 L0.150032733,2.82585925 C0.150032733,3.47901146 0.648782324,4.01155483 1.26260556,4.01155483 C1.87672013,4.01155483 2.37343044,3.47901146 2.37343044,2.82585925 L2.37343044,2.69796727 C2.37343044,2.3763437 2.61989198,2.11240262 2.92024877,2.11240262 L14.2536923,2.11240262 C14.2702979,2.11240262 14.2851555,2.11240262 14.2965172,2.1156072 C14.5881342,2.13046481 14.8206121,2.38420949 14.8206121,2.69796727 L14.8206121,2.70146318 L14.8206121,2.82323732 C14.8206121,3.47901146 15.3149918,4.01155483 15.931437,4.01155483 C16.5481735,4.01155483 17.0469231,3.47901146 17.0469231,2.82323732 L17.0469231,2.81566285 L17.0469231,2.30089034 C17.0469231,2.27933224 17.0440098,2.25806547 17.0440098,2.23767267 C17.0469231,2.19921768 17.0469231,2.16076268 17.0469231,2.12026841 C17.0469231,1.06712602 16.2457774,0.216454992 15.2584746,0.216454992 L10.3752733,0.216454992 Z" id="path-14"></path>
        <linearGradient x1="49.9997359%" y1="518.195013%" x2="49.9997359%" y2="-74.9225048%" id="linearGradient-16">
            <stop stop-color="#D63815" offset="0%"></stop>
            <stop stop-color="#E9591F" offset="100%"></stop>
        </linearGradient>
        <path d="M10.2339804,0.00728314239 L3.91687398,0.00728314239 L2.01335188,0.00728314239 L2.01335188,0.753076923 L2.01335188,0.913597381 L2.01335188,4.74977414 L8.12419967,4.74977414 C7.71022586,4.89427169 7.50950245,5.07343699 7.36646154,5.22492635 C7.21905074,5.37612439 7.09115876,5.54101473 6.98948609,5.69745663 L0.186157119,5.69745663 L0.186157119,11.152239 C0.186157119,11.8068478 0.696851064,12.3417218 1.32436661,12.3417218 C1.95770867,12.3417218 2.45937152,11.8068478 2.45937152,11.152239 L2.45937152,7.59486088 L6.13386252,7.59486088 C5.85011129,8.20110966 5.41224877,9.07129951 4.42756792,9.88934206 C4.09225205,10.1661015 3.50843535,10.4888903 3.16787561,10.6071686 C2.83401637,10.7245728 2.66184288,10.845473 2.65572504,10.9672471 C2.6484419,11.048527 2.75098854,11.1353421 2.95928642,11.225653 C3.17078887,11.3171293 3.81578396,11.3858822 4.19275941,11.3858822 C5.73969885,11.3858822 6.55599345,10.9876399 7.0870802,10.1433781 C7.64875614,9.25046481 7.94095581,8.57109329 8.2401473,7.59486088 L12.4969984,7.59486088 C12.5028249,7.59486088 12.5089427,7.59719149 12.5150606,7.59719149 C12.9893388,7.63098527 13.363401,8.04088052 13.363401,8.5451653 L13.363401,8.5632275 L13.363401,9.99101473 C13.363401,10.2619476 13.1504419,10.4807332 12.8902881,10.4807332 C12.8497938,10.4807332 12.8133781,10.4763633 12.7746318,10.4661669 C12.5479804,10.3974141 12.3341473,10.2415548 11.9568805,10.0268478 C11.7098363,9.88264157 11.5472766,10.1049231 11.5472766,10.2494206 C11.5472766,11.3555843 12.460874,12.3259902 13.5912177,12.3259902 C14.7180655,12.3259902 15.6325368,11.3724812 15.6325368,10.1966907 L15.6325368,7.60738789 C15.6325368,6.5554108 14.8174075,5.69745663 13.8076727,5.69745663 L8.62644517,5.69745663 C8.69519804,5.43730278 8.85630115,4.93709656 9.11179378,4.74977414 L11.2105041,4.74977414 L11.5472766,4.74977414 C12.8069689,4.74977414 13.8257349,3.69197054 13.8257349,2.3763437 C13.8257349,1.06246481 12.8069689,0.00728314239 11.5472766,0.00728314239 L10.2339804,0.00728314239 Z M4.27520458,1.90235679 L10.0763732,1.90235679 L11.0913519,1.90235679 C11.3436399,1.90235679 11.5472766,2.1156072 11.5472766,2.3763437 L11.5472766,2.37954828 C11.5472766,2.64261538 11.3436399,2.85586579 11.0913519,2.85586579 C10.98327,2.85586579 10.3432275,2.85790507 10.1037578,2.85790507 L4.27520458,2.85790507 L4.27520458,1.90235679 Z" id="path-17"></path>
        <linearGradient x1="49.9995717%" y1="120.961199%" x2="49.9995717%" y2="-61.5181188%" id="linearGradient-19">
            <stop stop-color="#D63815" offset="0%"></stop>
            <stop stop-color="#E9591F" offset="100%"></stop>
        </linearGradient>
        <path d="M6.85518494,0.142749591 C6.04326023,1.47906056 5.04168249,1.56471031 5.04168249,1.56471031 C5.04168249,1.56471031 3.79160393,1.32232733 3.21186579,0.142749591 L0.0576824877,0.142749591 C0.354834697,0.517394435 0.686072013,1.1291784 0.737345336,2.03986252 L10.8177971,2.03986252 C10.8367332,2.03986252 10.8515908,2.03986252 10.8655745,2.04452373 C11.1615614,2.05675941 11.3984092,2.31079542 11.3984092,2.62571849 L11.3984092,2.6280491 L11.3984092,2.74982324 C11.3984092,3.40676268 11.9067725,3.93959738 12.536036,3.93959738 C13.1658822,3.93959738 13.6730802,3.40676268 13.6730802,2.74982324 L13.6730802,2.74166612 L13.6759935,2.74166612 L13.6759935,2.22747627 C13.6759935,2.20708347 13.6730802,2.18436007 13.6719149,2.16280196 C13.6730802,2.1258036 13.6759935,2.08734861 13.6759935,2.04772831 C13.6759935,0.992837971 12.853581,0.142749591 11.8487987,0.142749591 L6.85518494,0.142749591 Z" id="path-20"></path>
        <linearGradient x1="49.9990027%" y1="512.294889%" x2="49.9990027%" y2="-80.6351009%" id="linearGradient-22">
            <stop stop-color="#D63815" offset="0%"></stop>
            <stop stop-color="#E9591F" offset="100%"></stop>
        </linearGradient>
        <path d="M0.493797054,0.905731588 L0.493797054,4.8354239 L6.50355483,4.8354239 C6.09657283,4.97555155 5.89905401,5.15471686 5.75863502,5.30271031 C5.61588543,5.45157774 5.49003273,5.61413748 5.39069067,5.76883142 L0.433783961,5.76883142 C0.77288707,6.17523077 1.16268085,6.82430442 1.12102128,7.63535516 L4.54992471,7.63535516 C4.26675614,8.23140753 3.83879869,9.08586579 2.86868412,9.88934206 C2.53628151,10.1637709 1.96207856,10.4807332 1.62996727,10.5993028 C1.2993126,10.7143764 1.13296563,10.832946 1.12509984,10.9526809 C1.12102128,11.0304648 1.22036334,11.1140753 1.42487398,11.2032209 C1.6314239,11.2946972 2.26797054,11.3622848 2.64086743,11.3622848 C4.16100491,11.3622848 4.9612766,10.9727823 5.48420622,10.1413388 C6.03859902,9.26415712 6.32613748,8.59381669 6.62037643,7.63535516 L10.8058527,7.63535516 C10.8113879,7.63535516 10.818671,7.63768576 10.8247889,7.63768576 C11.2897447,7.67060556 11.6588543,8.0746743 11.6588543,8.56876268 L11.6588543,8.58682488 L11.6588543,9.99101473 C11.6588543,10.259617 11.4496825,10.4763633 11.1944812,10.4763633 C11.1516563,10.4763633 11.1172799,10.4684975 11.0811555,10.4583011 C10.8565434,10.389257 10.6462062,10.2368936 10.2753486,10.0236432 C10.0338396,9.88468085 9.87331915,10.1025925 9.87331915,10.2450507 L9.87127987,10.2450507 C9.87127987,11.3351915 10.7729329,12.2887005 11.8808445,12.2887005 C12.9913781,12.2887005 13.8892439,11.3509231 13.8892439,10.1885336 C13.8892439,10.1285205 13.8930311,7.74168903 13.8930311,7.65021277 C13.8930311,6.61076268 13.0878069,5.76883142 12.0938036,5.76883142 L7.00055646,5.76883142 C7.06552209,5.51042553 7.22225532,5.02070704 7.47745663,4.8354239 L9.54179051,4.8354239 L9.87127987,4.8354239 C11.1094141,4.8354239 12.1168183,3.79830442 12.1168183,2.50277905 C12.1168183,1.20929296 11.1094141,0.169842881 9.87127987,0.169842881 L8.58187234,0.169842881 L2.364982,0.169842881 C2.40489362,0.143332242 2.39120131,0.131679214 2.33730606,0.131679214 C1.90148282,0.131679214 -1.16792471,0.905731588 0.493797054,0.905731588 Z M2.71806874,2.03665794 L8.42426514,2.03665794 L9.42089034,2.03665794 C9.67084779,2.03665794 9.86953191,2.24175123 9.86953191,2.50044845 L9.87127987,2.50277905 C9.86953191,2.76438953 9.67084779,2.97210475 9.42089034,2.97210475 C9.31892635,2.97210475 8.68471031,2.97560065 8.4487365,2.97560065 L2.71806874,2.97560065 L2.71806874,2.03665794 Z" id="path-23"></path>
        <linearGradient x1="49.9993564%" y1="121.702655%" x2="49.9993564%" y2="-63.4431332%" id="linearGradient-25">
            <stop stop-color="#D63815" offset="0%"></stop>
            <stop stop-color="#E9591F" offset="100%"></stop>
        </linearGradient>
        <path d="M16.4339738,1.93731588 C14.5153028,3.12709002 10.782838,1.21511948 9.75183633,0.902527005 C9.22220622,0.743171849 6.87295581,-0.18207856 4.55633388,0.568376432 C3.81694926,0.808720131 3.08164321,1.21948936 2.40838953,1.88225532 C2.40838953,1.88225532 1.72027823,2.87305401 0.264815057,2.71865139 C0.264815057,2.71865139 -0.0434075286,3.01289034 0.504576105,3.25352537 C0.504576105,3.25352537 0.790657938,3.47114566 1.34097218,3.56029133 C1.50615385,3.58651064 1.69580687,3.59874632 1.91022259,3.59088052 C2.71777741,3.56495254 3.86734861,3.22847136 5.32339444,2.05151555 C8.42688707,-0.456216039 9.74222259,1.61802291 11.5758265,2.42266448 C13.4452635,3.24303764 15.9427987,5.12674959 18.7870115,1.93731588 C21.4211784,-1.01847463 24.3184124,1.87438953 25.1446121,2.37284779 C26.0343208,2.90568249 26.6265859,3.3831653 28.999725,3.36510311 C28.999725,3.36510311 27.132036,2.39440589 28.2166416,2.10220622 C28.9321375,1.91022259 25.3217381,0.743171849 22.0198527,0.322206219 C21.5094501,0.256657938 21.0884845,0.206258592 20.6838331,0.206258592 C19.6085499,0.206258592 18.6497971,0.562841244 16.4339738,1.93731588" id="path-26"></path>
        <linearGradient x1="50.0001056%" y1="492.734811%" x2="50.0001056%" y2="-146.730542%" id="linearGradient-28">
            <stop stop-color="#D63815" offset="0%"></stop>
            <stop stop-color="#E9591F" offset="100%"></stop>
        </linearGradient>
        <path d="M0.123813421,1.20608838 C0.123813421,1.81641571 0.600713584,2.31429133 1.18569558,2.31429133 C1.77475614,2.31429133 2.25078232,1.81641571 2.25078232,1.20608838 C2.25078232,0.591973813 1.77475614,0.0932242226 1.18569558,0.0932242226 C0.600713584,0.0932242226 0.123813421,0.591973813 0.123813421,1.20608838" id="path-29"></path>
        <linearGradient x1="50.0016792%" y1="274.348931%" x2="50.0016792%" y2="-738.922825%" id="linearGradient-31">
            <stop stop-color="#D63815" offset="0%"></stop>
            <stop stop-color="#E9591F" offset="100%"></stop>
        </linearGradient>
        <path d="M0.244713584,1.20608838 C0.244713584,1.81641571 0.721322422,2.31429133 1.3071784,2.31429133 C1.89653028,2.31429133 2.37109984,1.81641571 2.37109984,1.20608838 C2.37109984,0.591973813 1.89653028,0.0932242226 1.3071784,0.0932242226 C0.721322422,0.0932242226 0.244713584,0.591973813 0.244713584,1.20608838" id="path-32"></path>
        <linearGradient x1="49.9957405%" y1="274.348931%" x2="49.9957405%" y2="-738.922825%" id="linearGradient-34">
            <stop stop-color="#D63815" offset="0%"></stop>
            <stop stop-color="#E9591F" offset="100%"></stop>
        </linearGradient>
    </defs>
    <g id="Page-1" stroke="none" stroke-width="1" fill="none" fill-rule="evenodd">
        <g id="首页" transform="translate(-360.000000, -7.000000)">
            <g id="nav">
                <g id="logo-wowo" transform="translate(360.000000, 7.000000)">
                    <g id="Group-67" transform="translate(0.000000, 0.060304)">
                        <path d="M161.869646,5.52257381 L164.909629,5.52257381 C164.995571,5.52257381 165.071607,5.57879967 165.097243,5.66124484 L167.070975,9.48693388 C167.110012,9.61336923 167.015332,9.74184386 166.882778,9.74184386 L163.843086,9.74184386 C163.757145,9.74184386 163.680818,9.68590933 163.655181,9.60346416 L161.681449,5.7774838 C161.642412,5.65104845 161.737093,5.52257381 161.869646,5.52257381" id="Fill-1" fill="#000000"></path>
                        <g id="Group-5" transform="translate(172.464812, 5.243863)">
                            <mask id="mask-2" fill="white">
                                <use xlink:href="#path-1"></use>
                            </mask>
                            <g id="Clip-4"></g>
                            <path d="M5.42859214,0.533766939 L3.45544321,4.3597473 C3.42980655,4.44219247 3.35347921,4.498127 3.26724681,4.498127 L0.227263175,4.498127 C0.0947099836,4.498127 0.000320458265,4.36965237 0.0396494272,4.2429257 L2.01279836,0.417236661 C2.03843502,0.334791489 2.11476236,0.278856956 2.20099476,0.278856956 L5.24068707,0.278856956 C5.37353159,0.278856956 5.46821244,0.407040262 5.42859214,0.533766939" id="Fill-3" fill="#000000" mask="url(#mask-2)"></path>
                        </g>
                        <path d="M160.628365,6.68190442 L160.628365,9.09874239 C160.628365,9.20740687 160.540385,9.29538723 160.43172,9.29538723 L153.367946,9.29538723 L152.785586,10.3890239 C152.75121,10.4531155 152.684496,10.4933185 152.611665,10.4933185 L149.110804,10.4933185 C148.963102,10.4933185 148.86813,10.3365853 148.936009,10.2054887 L151.807315,4.69506318 C151.841108,4.63009755 151.908405,4.58902062 151.981527,4.58902062 L155.503364,4.58902062 C155.658932,4.58902062 155.75303,4.76090278 155.669419,4.89199935 L154.845842,6.48525957 L160.43172,6.48525957 C160.540385,6.48525957 160.628365,6.57323993 160.628365,6.68190442" id="Fill-6" fill="#000000"></path>
                        <path d="M171.365611,11.6600488 L168.20968,11.6600488 C168.048576,11.6600488 167.918354,11.5295349 167.918354,11.3687231 L167.918354,4.86749885 C167.918354,4.70639574 168.048576,4.57617316 168.20968,4.57617316 L171.365611,4.57617316 C171.526714,4.57617316 171.656936,4.70639574 171.656936,4.86749885 L171.656936,11.3687231 C171.656936,11.5295349 171.526714,11.6600488 171.365611,11.6600488" id="Fill-8" fill="#000000"></path>
                        <path d="M160.137627,14.9028825 L149.307012,14.9028825 C149.146491,14.9028825 149.015686,14.7726599 149.015686,14.6115568 L149.015686,12.4394324 C149.015686,12.2786206 149.146491,12.1481067 149.307012,12.1481067 L160.137627,12.1481067 C160.298439,12.1481067 160.428953,12.2786206 160.428953,12.4394324 L160.428953,14.6115568 C160.428953,14.7726599 160.298439,14.9028825 160.137627,14.9028825" id="Fill-10" fill="#000000"></path>
                        <path d="M160.137627,20.2158766 L149.307012,20.2158766 C149.146491,20.2158766 149.015686,20.0853627 149.015686,19.9245509 L149.015686,17.7524265 C149.015686,17.5916147 149.146491,17.4611008 149.307012,17.4611008 L160.137627,17.4611008 C160.298439,17.4611008 160.428953,17.5916147 160.428953,17.7524265 L160.428953,19.9245509 C160.428953,20.0853627 160.298439,20.2158766 160.137627,20.2158766" id="Fill-12" fill="#000000"></path>
                        <path d="M174.957657,19.0352209 L163.938262,19.0352209 C163.829598,19.0352209 163.741326,18.9472406 163.741326,18.8385761 L163.741326,16.47709 C163.741326,16.3684255 163.829598,16.2804452 163.938262,15.8868642 L174.957657,15.8868642 C175.066321,16.2804452 175.154301,16.3684255 175.154301,16.47709 L175.154301,18.8385761 C175.154301,18.9472406 175.066321,19.0352209 174.957657,19.0352209" id="Fill-14" fill="#000000"></path>
                        <path d="M174.862947,23.3642917 L164.032623,23.3642917 C163.871519,23.3642917 163.741297,23.2337777 163.741297,23.072966 L163.741297,20.9008416 C163.741297,20.7400298 163.871519,20.6095159 164.032623,20.6095159 L174.862947,20.6095159 C175.02405,20.6095159 175.154272,20.7400298 175.154272,20.9008416 L175.154272,23.072966 C175.154272,23.2337777 175.02405,23.3642917 174.862947,23.3642917" id="Fill-16" fill="#000000"></path>
                        <path d="M176.138341,11.3610321 L174.170436,11.3610321 L165.315592,11.3610321 L163.937913,11.3610321 L163.347978,11.3610321 C162.6957,11.3610321 162.167235,11.8894969 162.167235,12.5417751 L162.167235,28.6695656 C162.167235,28.7782301 162.255215,28.8665018 162.36388,28.8665018 L165.315592,28.8665018 C165.424256,28.8665018 165.512237,28.7782301 165.512237,28.6695656 L165.512237,14.1158079 L173.9735,14.1158079 L173.9735,25.9147899 C173.9735,26.0234543 173.885811,26.1114347 173.777147,26.1114347 L170.234918,26.1114347 C170.126253,26.1114347 170.038273,26.1997064 170.038273,26.3083709 L170.038273,28.6695656 C170.038273,28.7782301 170.126253,28.8665018 170.234918,28.8665018 L174.170436,28.8665018 L175.744469,28.8665018 C176.614076,28.8665018 177.319084,28.1614936 177.319084,27.2921777 L177.319084,12.5417751 C177.319084,11.8894969 176.790328,11.3610321 176.138341,11.3610321" id="Fill-18" fill="#000000"></path>
                        <path d="M159.740172,26.1115512 L156.591815,26.1115512 C156.48315,26.1115512 156.39517,26.0235709 156.39517,25.9149064 L156.39517,13.1242517 C156.39517,13.0155872 156.306898,12.9276069 156.198234,12.9276069 L153.246522,12.9276069 C153.137857,12.9276069 153.049877,13.0155872 153.049877,13.1242517 L153.049877,27.2922943 C153.049877,28.1616101 153.754594,28.8666183 154.62391,28.8666183 L156.198234,28.8666183 L159.740172,28.8666183 C159.848836,28.8666183 159.937108,28.7783466 159.937108,28.6696822 L159.937108,26.3081961 C159.937108,26.1995316 159.848836,26.1115512 159.740172,26.1115512" id="Fill-20" fill="#000000"></path>
                        <path d="M127.500613,6.55686743 L124.147455,6.55686743 C123.987226,6.55686743 123.856129,6.42577087 123.856129,6.26554173 L123.856129,4.88057938 C123.856129,4.72005892 123.987226,4.58925368 124.147455,4.58925368 L127.500613,4.58925368 C127.660843,4.58925368 127.791939,4.72005892 127.791939,4.88057938 L127.791939,6.26554173 C127.791939,6.42577087 127.660843,6.55686743 127.500613,6.55686743" id="Fill-22" fill="#000000"></path>
                        <path d="M140.684529,6.55686743 L137.331661,6.55686743 C137.171141,6.55686743 137.040336,6.42577087 137.040336,6.26554173 L137.040336,4.88057938 C137.040336,4.72005892 137.171141,4.58925368 137.331661,4.58925368 L140.684529,4.58925368 C140.844758,4.58925368 140.975854,4.72005892 140.975854,4.88057938 L140.975854,6.26554173 C140.975854,6.42577087 140.844758,6.55686743 140.684529,6.55686743" id="Fill-24" fill="#000000"></path>
                        <path d="M145.013425,9.1149401 L119.818704,9.1149401 C119.657601,9.1149401 119.527379,8.98442619 119.527379,8.8236144 L119.527379,6.65149002 C119.527379,6.49067823 119.657601,6.36016432 119.818704,6.36016432 L145.013425,6.36016432 C145.174528,6.36016432 145.30475,6.49067823 145.30475,6.65149002 L145.30475,8.8236144 C145.30475,8.98442619 145.174528,9.1149401 145.013425,9.1149401" id="Fill-26" fill="#000000"></path>
                        <path d="M143.73063,10.0988635 L121.101324,10.0988635 C120.232008,10.0988635 119.527291,10.8035804 119.527291,11.6728962 L119.527291,12.6569944 L119.527291,14.2313185 C119.527291,14.3394003 119.615854,14.4279633 119.723936,14.4279633 L123.265874,14.4279633 C123.374247,14.4279633 123.46281,14.3394003 123.46281,14.2313185 L123.46281,12.8536393 L141.369435,12.8536393 L141.369435,14.2313185 C141.369435,14.3394003 141.457707,14.4279633 141.56608,14.4279633 L145.108309,14.4279633 C145.216391,14.4279633 145.304954,14.3394003 145.304954,14.2313185 L145.304954,12.6569944 L145.304954,11.6728962 C145.304954,10.8035804 144.599946,10.0988635 143.73063,10.0988635" id="Fill-28" fill="#000000"></path>
                        <mask id="mask-4" fill="white">
                            <use xlink:href="#path-3"></use>
                        </mask>
                        <g id="Clip-31"></g>
                        <path d="M125.233633,18.9285957 L139.598321,18.9285957 L139.598321,17.5019738 L125.233633,17.5019738 L125.233633,18.9285957 Z M121.396291,15.4606547 L121.396291,19.3958822 C121.396291,20.2654894 122.1013,20.9702062 122.970907,20.9702062 L141.861339,20.9702062 C142.730655,20.9702062 143.435663,20.2654894 143.435663,19.3958822 L143.435663,15.4606547 L121.396291,15.4606547 Z" id="Fill-30" fill="#000000" mask="url(#mask-4)"></path>
                        <path d="M123.167552,26.2105728 L141.664694,26.2105728 L141.664694,24.7839509 L123.167552,24.7839509 L123.167552,26.2105728 Z M120.216131,21.9790671 L120.216131,27.2922651 C120.216131,28.161581 120.920848,28.8665892 121.790164,28.8665892 L143.041791,28.8665892 C143.911398,28.8665892 144.616406,28.161581 144.616406,27.2922651 L144.616406,21.9790671 L120.216131,21.9790671 Z" id="Fill-32" fill="#000000" mask="url(#mask-4)"></path>
                        <path d="M79.1234763,14.0604851 C78.0120687,14.0604851 77.3376498,13.8178108 77.1013846,13.3304229 L75.918311,10.8710514 C75.839653,10.7399548 75.9340426,10.5730252 76.0869885,10.5730252 L79.5828969,10.5730252 C79.6440753,10.5730252 79.7017578,10.6012838 79.7387561,10.6499352 L80.2415843,11.3033787 C80.4720229,11.5119679 80.4353159,11.6162625 80.7126579,11.6162625 L85.707437,11.6162625 C85.8158101,11.6162625 85.9040818,11.7042429 85.9040818,11.8129074 L85.9040818,13.8638403 C85.9040818,13.9725047 85.8158101,14.0604851 85.707437,14.0604851 L79.1234763,14.0604851 Z" id="Fill-33" fill="#000000" mask="url(#mask-4)"></path>
                        <path d="M61.488454,14.0604851 C61.3797895,14.0604851 61.2915178,13.9725047 61.2915178,13.8638403 L61.2915178,11.8129074 C61.2915178,11.7042429 61.3797895,11.6162625 61.488454,11.6162625 L66.4832331,11.6162625 C66.7602838,11.6162625 66.7235768,11.5119679 66.9540154,11.3033787 L67.4568435,10.6499352 C67.4941332,10.6012838 67.5515244,10.5730252 67.6127028,10.5730252 L71.1086111,10.5730252 C71.2615571,10.5730252 71.3559466,10.7399548 71.27758,10.8710514 L70.0942151,13.3304229 C69.8579499,13.8178108 69.1838223,14.0604851 68.0721234,14.0604851 L61.488454,14.0604851 Z" id="Fill-34" fill="#000000" mask="url(#mask-4)"></path>
                        <path d="M73.9492989,24.2695571 L76.8919797,24.2695571 C76.9703463,24.2695571 77.0396818,24.3205391 77.0629879,24.3957011 L78.8587195,26.8763394 C78.8945525,26.9917044 78.8083201,27.108526 78.6877113,27.108526 L75.7450304,27.108526 C75.6666638,27.108526 75.5973283,27.0572527 75.5740223,26.9826733 L73.7782907,24.5017437 C73.7427489,24.3863787 73.82869,24.2695571 73.9492989,24.2695571" id="Fill-35" fill="#000000" mask="url(#mask-4)"></path>
                        <path d="M75.3194619,6.55686743 L71.9665944,6.55686743 C71.8063653,6.55686743 71.6752687,6.42577087 71.6752687,6.26554173 L71.6752687,4.88057938 C71.6752687,4.72005892 71.8063653,4.58925368 71.9665944,4.58925368 L75.3194619,4.58925368 C75.479691,4.58925368 75.6107876,4.72005892 75.6107876,4.88057938 L75.6107876,6.26554173 C75.6107876,6.42577087 75.479691,6.55686743 75.3194619,6.55686743" id="Fill-36" fill="#000000" mask="url(#mask-4)"></path>
                        <path d="M84.9588173,6.36013519 L62.327472,6.36013519 C61.4584475,6.36013519 60.7543133,7.06426939 60.7543133,7.93329394 L60.7543133,8.91826612 L60.7543133,10.5030779 C60.7543133,10.6053332 60.8379237,10.689235 60.9401791,10.689235 L64.503675,10.689235 C64.6059303,10.689235 64.6898321,10.6053332 64.6898321,10.5030779 L64.6898321,9.11491097 L82.5964573,9.11491097 L82.5964573,10.5030779 C82.5964573,10.6053332 82.6800678,10.689235 82.7823231,10.689235 L86.345819,10.689235 C86.4480743,10.689235 86.5319761,10.6053332 86.5319761,10.5030779 L86.5319761,8.91826612 L86.5319761,7.93329394 C86.5319761,7.06426939 85.8275506,6.36013519 84.9588173,6.36013519" id="Fill-37" fill="#000000" mask="url(#mask-4)"></path>
                        <path d="M85.3519905,20.798528 L84.3748841,20.798528 L83.3835028,20.798528 L63.808164,20.798528 L62.7139447,20.798528 L61.9340658,20.798528 C61.2823702,20.798528 60.7541967,21.3267015 60.7541967,21.9783971 L60.7541967,28.5751761 C60.7541967,28.7359879 60.8847106,28.8665018 61.0455224,28.8665018 L63.808164,28.8665018 C63.9689758,28.8665018 64.0994897,28.7359879 64.0994897,28.5751761 L64.0994897,23.5535951 L83.1865666,23.5535951 L83.1865666,25.9147899 C83.1865666,26.0234543 83.0985863,26.1114347 82.9899218,26.1114347 L79.447984,26.1114347 C79.3393195,26.1114347 79.2513391,26.1997064 79.2513391,26.3083709 L79.2513391,28.6695656 C79.2513391,28.7782301 79.3393195,28.8665018 79.447984,28.8665018 L83.3835028,28.8665018 L84.9575355,28.8665018 C85.8271427,28.8665018 86.5318596,28.1614936 86.5318596,27.2921777 L86.5318596,21.9783971 C86.5318596,21.3267015 86.0036861,20.798528 85.3519905,20.798528" id="Fill-38" fill="#000000" mask="url(#mask-4)"></path>
                        <path d="M67.0229722,17.9736301 L80.2631424,17.9736301 L80.2631424,16.6585859 L67.0229722,16.6585859 L67.0229722,17.9736301 Z M63.4862782,14.7769133 L63.4862782,18.282144 C63.4862782,19.1508773 64.1907038,19.8553028 65.059437,19.8553028 L82.2266776,19.8553028 C83.0954108,19.8553028 83.7998363,19.1508773 83.7998363,18.282144 L83.7998363,14.7769133 L63.4862782,14.7769133 Z" id="Fill-39" fill="#000000" mask="url(#mask-4)"></path>
                        <path d="M71.6855525,19.6309529 L75.5258079,19.6309529 C75.6872023,19.6309529 75.7798439,19.8144881 75.684289,19.9444193 L71.2514773,27.0285863 C71.2144789,27.0786943 71.1556311,27.1084095 71.0929961,27.1084095 L67.2530321,27.1084095 C67.0913463,27.1084095 66.9987047,26.9248743 67.0945509,26.794943 L71.5270714,19.7110674 C71.5640697,19.6606681 71.6229175,19.6309529 71.6855525,19.6309529" id="Fill-40" fill="#000000" mask="url(#mask-4)"></path>
                        <path d="M108.547372,14.0604851 C107.435964,14.0604851 106.761545,13.8178108 106.525571,13.3304229 L105.342206,10.8710514 C105.263548,10.7399548 105.357938,10.5730252 105.510884,10.5730252 L109.006792,10.5730252 C109.067971,10.5730252 109.125362,10.6012838 109.162651,10.6499352 L109.66548,11.3033787 C109.895918,11.5119679 109.859211,11.6162625 110.136262,11.6162625 L115.131332,11.6162625 C115.239997,11.6162625 115.327686,11.7042429 115.327686,11.8129074 L115.327686,13.8638403 C115.327686,13.9725047 115.239997,14.0604851 115.131332,14.0604851 L108.547372,14.0604851 Z" id="Fill-41" fill="#000000" mask="url(#mask-4)"></path>
                        <path d="M90.9122036,14.0604851 C90.8035391,14.0604851 90.7155588,13.9725047 90.7155588,13.8638403 L90.7155588,11.8129074 C90.7155588,11.7042429 90.8035391,11.6162625 90.9122036,11.6162625 L95.907274,11.6162625 C96.1843247,11.6162625 96.1476177,11.5119679 96.3780563,11.3033787 L96.8805931,10.6499352 C96.9178828,10.6012838 96.975274,10.5730252 97.0364524,10.5730252 L100.532361,10.5730252 C100.685598,10.5730252 100.779988,10.7399548 100.70133,10.8710514 L99.5179646,13.3304229 C99.2816995,13.8178108 98.6075718,14.0604851 97.4961643,14.0604851 L90.9122036,14.0604851 Z" id="Fill-42" fill="#000000" mask="url(#mask-4)"></path>
                        <path d="M103.373194,24.2695571 L106.315875,24.2695571 C106.394242,24.2695571 106.463577,24.3205391 106.486883,24.3957011 L108.282615,26.8763394 C108.318448,26.9917044 108.232215,27.108526 108.111607,27.108526 L105.168926,27.108526 C105.090559,27.108526 105.021224,27.0572527 104.997918,26.9826733 L103.202186,24.5017437 C103.166353,24.3863787 103.252585,24.2695571 103.373194,24.2695571" id="Fill-43" fill="#000000" mask="url(#mask-4)"></path>
                        <path d="M104.743357,6.55686743 L101.39049,6.55686743 C101.230261,6.55686743 101.099164,6.42577087 101.099164,6.26554173 L101.099164,4.88057938 C101.099164,4.72005892 101.230261,4.58925368 101.39049,4.58925368 L104.743357,4.58925368 C104.903586,4.58925368 105.034683,4.72005892 105.034683,4.88057938 L105.034683,6.26554173 C105.034683,6.42577087 104.903586,6.55686743 104.743357,6.55686743" id="Fill-44" fill="#000000" mask="url(#mask-4)"></path>
                        <path d="M114.382713,6.36013519 L91.7510759,6.36013519 C90.8823427,6.36013519 90.1782085,7.06426939 90.1782085,7.93329394 L90.1782085,8.91826612 L90.1782085,10.5030779 C90.1782085,10.6053332 90.261819,10.689235 90.3643656,10.689235 L93.9275702,10.689235 C94.0301169,10.689235 94.1137273,10.6053332 94.1137273,10.5030779 L94.1137273,9.11491097 L112.020353,9.11491097 L112.020353,10.5030779 C112.020353,10.6053332 112.103963,10.689235 112.206218,10.689235 L115.769714,10.689235 C115.87197,10.689235 115.95558,10.6053332 115.95558,10.5030779 L115.95558,8.91826612 L115.95558,7.93329394 C115.95558,7.06426939 115.251446,6.36013519 114.382713,6.36013519" id="Fill-45" fill="#000000" mask="url(#mask-4)"></path>
                        <path d="M114.775886,20.798528 L113.798779,20.798528 L112.807398,20.798528 L93.2320592,20.798528 L92.1378399,20.798528 L91.357961,20.798528 C90.7062655,20.798528 90.178092,21.3267015 90.178092,21.9783971 L90.178092,28.5751761 C90.178092,28.7359879 90.3086059,28.8665018 90.4694177,28.8665018 L93.2320592,28.8665018 C93.392871,28.8665018 93.5233849,28.7359879 93.5233849,28.5751761 L93.5233849,23.5535951 L112.610462,23.5535951 L112.610462,25.9147899 C112.610462,26.0234543 112.522482,26.1114347 112.413817,26.1114347 L108.871879,26.1114347 C108.763215,26.1114347 108.675234,26.1997064 108.675234,26.3083709 L108.675234,28.6695656 C108.675234,28.7782301 108.763215,28.8665018 108.871879,28.8665018 L112.807398,28.8665018 L114.381431,28.8665018 C115.251038,28.8665018 115.955755,28.1614936 115.955755,27.2921777 L115.955755,21.9783971 C115.955755,21.3267015 115.427581,20.798528 114.775886,20.798528" id="Fill-46" fill="#000000" mask="url(#mask-4)"></path>
                        <path d="M96.4468674,17.9736301 L109.687038,17.9736301 L109.687038,16.6585859 L96.4468674,16.6585859 L96.4468674,17.9736301 Z M92.9101735,14.7769133 L92.9101735,18.282144 C92.9101735,19.1508773 93.6143077,19.8553028 94.4833322,19.8553028 L111.650573,19.8553028 C112.519597,19.8553028 113.223732,19.1508773 113.223732,18.282144 L113.223732,14.7769133 L92.9101735,14.7769133 Z" id="Fill-47" fill="#000000" mask="url(#mask-4)"></path>
                        <path d="M101.109448,19.6309529 L104.949703,19.6309529 C105.111098,19.6309529 105.20403,19.8144881 105.108184,19.9444193 L100.675373,27.0285863 C100.638374,27.0786943 100.579526,27.1084095 100.517183,27.1084095 L96.676636,27.1084095 C96.5152416,27.1084095 96.4226,26.9248743 96.5184462,26.794943 L100.950967,19.7110674 C100.988256,19.6606681 101.046813,19.6309529 101.109448,19.6309529" id="Fill-48" fill="#000000" mask="url(#mask-4)"></path>
                        <polygon id="Fill-49" fill="#000000" mask="url(#mask-4)" points="69.9891047 34.5375061 68.2225057 41.0856337 66.5945777 41.0856337 65.440928 36.6394209 63.9965352 41.0856337 62.3799689 41.0856337 61.0407447 34.5375061 62.4606661 34.5375061 63.356784 39.4227466 64.8393404 34.5375061 66.2595532 34.5375061 67.4673895 39.4227466 68.6382275 34.5375061"></polygon>
                        <polygon id="Fill-50" fill="#000000" mask="url(#mask-4)" points="79.2500864 34.5375061 77.4834874 41.0856337 75.8555594 41.0856337 74.7019097 36.6394209 73.2575169 41.0856337 71.6409506 41.0856337 70.3017264 34.5375061 71.7216478 34.5375061 72.6177656 39.4227466 74.1003221 34.5375061 75.5205349 34.5375061 76.7283712 39.4227466 77.8992092 34.5375061"></polygon>
                        <polygon id="Fill-51" fill="#000000" mask="url(#mask-4)" points="88.5108933 34.5375061 86.7445856 41.0856337 85.1163663 41.0856337 83.9627165 36.6394209 82.5183237 41.0856337 80.9017574 41.0856337 79.5625332 34.5375061 80.9824547 34.5375061 81.8785725 39.4227466 83.361129 34.5375061 84.7813417 34.5375061 85.9891781 39.4227466 87.160016 34.5375061"></polygon>
                        <polygon id="Fill-52" fill="#000000" mask="url(#mask-4)" points="88.824855 39.4571813 90.4414213 39.4571813 90.4283116 41.0854007 88.8117453 41.0854007"></polygon>
                        <polygon id="Fill-53" fill="#000000" mask="url(#mask-4)" points="99.9197028 34.5375061 98.1533951 41.0856337 96.5251758 41.0856337 95.3718173 36.6394209 93.9274245 41.0856337 92.3105669 41.0856337 90.9713427 34.5375061 92.3912642 34.5375061 93.287382 39.4227466 94.7699385 34.5375061 96.1901512 34.5375061 97.3982789 39.4227466 98.5688255 34.5375061"></polygon>
                        <path d="M103.804793,39.9998628 C104.209153,39.9998628 104.470472,39.9768481 104.607104,39.7688416 C104.717225,39.6074471 104.774034,39.3414668 104.77753,38.9027303 L104.778695,37.2054668 C104.783065,36.7084651 104.767042,36.4197614 104.730335,36.2120462 C104.642646,35.7153358 104.370256,35.6116239 103.619801,35.6116239 L103.112021,35.6116239 C102.696008,35.6116239 102.440806,35.6693064 102.298057,35.8423538 C102.164921,36.0043309 102.133166,36.2813817 102.12967,36.7201182 L102.128796,38.417673 C102.123553,38.914092 102.128505,39.2030871 102.165212,39.4110936 C102.252901,39.9075126 102.523251,39.9998628 103.273706,39.9998628 L103.804793,39.9998628 Z M100.764518,39.6534766 C100.717906,39.3877876 100.696639,39.0064422 100.696931,38.417673 L100.697805,36.7201182 C100.697222,35.8653686 100.733929,35.2882524 101.1077,34.9185601 C101.45059,34.5721738 102.007605,34.4565175 103.000443,34.4565175 L103.79751,34.4565175 C105.263752,34.4565175 105.935258,34.8605863 106.130737,35.9693718 C106.177932,36.2350609 106.20823,36.6044619 106.210269,37.2054668 L106.209395,38.9027303 C106.207647,39.7455355 106.145886,40.3115813 105.797461,40.6926354 C105.467972,41.0506746 104.899595,41.1663309 103.906757,41.1663309 L103.10969,41.1663309 C101.643448,41.1663309 100.959998,40.7619709 100.764518,39.6534766 Z" id="Fill-54" fill="#000000" mask="url(#mask-4)"></path>
                        <polygon id="Fill-55" fill="#000000" mask="url(#mask-4)" points="115.959105 34.5375061 114.192506 41.0856337 112.564578 41.0856337 111.410928 36.6394209 109.966536 41.0856337 108.349969 41.0856337 107.010454 34.5375061 108.430375 34.5375061 109.326493 39.4227466 110.809341 34.5375061 112.229262 34.5375061 113.43739 39.4227466 114.607936 34.5375061"></polygon>
                        <path d="M119.843933,39.9998628 C120.248293,39.9998628 120.509612,39.9768481 120.646244,39.7688416 C120.756365,39.6074471 120.813174,39.3414668 120.81667,38.9027303 L120.817835,37.2054668 C120.822496,36.7084651 120.806182,36.4197614 120.769475,36.2120462 C120.681786,35.7153358 120.409396,35.6116239 119.658941,35.6116239 L119.151161,35.6116239 C118.735439,35.6116239 118.479946,35.6693064 118.337197,35.8423538 C118.204061,36.0043309 118.172306,36.2813817 118.16881,36.7201182 L118.167936,38.417673 C118.162984,38.914092 118.167645,39.2030871 118.204352,39.4110936 C118.292041,39.9075126 118.562683,39.9998628 119.313138,39.9998628 L119.843933,39.9998628 Z M116.80395,39.6534766 C116.757046,39.3877876 116.736071,39.0064422 116.736071,38.417673 L116.736945,36.7201182 C116.736362,35.8653686 116.77336,35.2882524 117.14684,34.9185601 C117.490022,34.5721738 118.046745,34.4565175 119.039583,34.4565175 L119.83665,34.4565175 C121.302892,34.4565175 121.974398,34.8605863 122.169878,35.9693718 C122.217072,36.2350609 122.24737,36.6044619 122.249409,37.2054668 L122.248536,38.9027303 C122.247079,39.7455355 122.185027,40.3115813 121.836892,40.6926354 C121.507403,41.0506746 120.938735,41.1663309 119.945897,41.1663309 L119.14883,41.1663309 C117.682588,41.1663309 116.999429,40.7619709 116.80395,39.6534766 Z" id="Fill-56" fill="#000000" mask="url(#mask-4)"></path>
                        <path d="M123.663592,39.9190782 L126.400305,39.9190782 C126.838751,39.9190782 126.932849,39.8613957 126.917991,39.3183646 L126.912165,39.1566789 C126.898472,38.8796282 126.916535,38.5909244 126.90022,38.4988655 C126.881867,38.3948622 126.792721,38.3485414 126.527323,38.3485414 L125.130125,38.3485414 C124.264305,38.3485414 123.818577,38.2445381 123.702629,37.5861421 C123.66971,37.4014416 123.657183,37.066417 123.654561,36.7893663 L123.638829,35.7848753 C123.626885,34.7337722 124.146318,34.5374187 124.9664,34.5374187 L127.908499,34.5374187 L127.908499,35.7038867 L125.414459,35.7038867 C125.045058,35.7038867 124.949795,35.819543 124.956495,36.1196085 L124.959991,36.4662861 C124.96203,36.6740013 124.969896,36.9163843 124.986502,37.0090259 C125.013012,37.1587673 125.109441,37.1820733 125.317156,37.1820733 L126.645019,37.1820733 C127.638148,37.1820733 128.099317,37.3090913 128.23187,38.0598376 C128.264207,38.2445381 128.280521,38.5332419 128.281104,38.9952845 L128.287805,39.6883483 C128.29771,40.9238606 127.968512,41.0855463 126.605981,41.0855463 L123.663592,41.0855463 L123.663592,39.9190782 Z" id="Fill-57" fill="#000000" mask="url(#mask-4)"></path>
                        <path d="M135.185465,35.7154815 C135.246643,36.0618678 135.255092,36.5699398 135.248974,37.1240412 L135.243147,41.0854881 L133.811573,41.0854881 L133.812738,37.2283358 C133.81536,36.7202638 133.80662,36.408254 133.771661,36.2121918 C133.708735,35.8541525 133.501894,35.7271345 132.727841,35.7271345 L131.272961,35.7271345 L131.282866,41.0854881 L129.851,41.0854881 L129.842552,31.8699823 L131.274126,31.8699823 L131.270921,34.5376517 L133.003144,34.5376517 C134.469678,34.5376517 135.034558,34.8607319 135.185465,35.7154815" id="Fill-58" fill="#000000" mask="url(#mask-4)"></path>
                        <path d="M136.987198,34.5375061 L138.418772,34.5375061 L138.430425,41.0856337 L136.998851,41.0856337 L136.987198,34.5375061 Z M136.964474,31.9852016 L138.44237,31.9852016 L138.437417,33.4633882 L136.95923,33.4633882 L136.964474,31.9852016 Z" id="Fill-59" fill="#000000" mask="url(#mask-4)"></path>
                        <path d="M140.07056,31.9851434 L141.548455,31.9851434 L141.543794,33.46333 L140.065607,33.46333 L140.07056,31.9851434 Z M139.201535,41.9860632 L139.432556,41.9860632 C139.698245,41.9860632 139.95199,41.9860632 140.067355,41.7897097 C140.185051,41.6050092 140.187381,41.2932907 140.186507,40.7619126 L140.162619,34.5374478 L141.594193,34.5374478 L141.606429,40.7619126 C141.604681,41.7323185 141.571761,42.3324494 141.204399,42.7368095 C140.884232,43.0831957 140.432678,43.1411696 139.681931,43.1411696 L139.201535,43.1411696 L139.201535,41.9860632 Z" id="Fill-60" fill="#000000" mask="url(#mask-4)"></path>
                        <path d="M143.33804,34.5375061 L144.769905,34.5375061 L144.781558,41.0856337 L143.349693,41.0856337 L143.33804,34.5375061 Z M143.315316,31.9852016 L144.793211,31.9852016 L144.78855,33.4633882 L143.310364,33.4633882 L143.315316,31.9852016 Z" id="Fill-61" fill="#000000" mask="url(#mask-4)"></path>
                        <path d="M150.105099,35.981054 C150.051786,35.6806972 149.866794,35.6113617 149.335416,35.6113617 L148.515626,35.6113617 C147.984539,35.6113617 147.74303,35.6806972 147.738077,36.373761 L147.740699,37.4359345 L149.70336,37.4359345 C150.026441,37.4359345 150.131318,37.3089165 150.124326,37.0088511 L150.119373,36.2583961 C150.123743,36.1541015 150.119373,36.0617512 150.105099,35.981054 M151.50754,35.7500327 C151.532012,35.8887038 151.553279,36.0734043 151.551239,36.2583961 L151.550365,37.1705368 C151.546578,38.1983339 151.228742,38.5560818 150.27028,38.5560818 L147.730211,38.5560818 L147.735455,38.9141211 C147.735455,39.1104746 147.744778,39.2951751 147.767501,39.4224845 C147.838876,39.8268445 148.062614,39.9191948 148.732372,39.9191948 L151.361004,39.9191948 L151.361004,41.0853715 L148.661288,41.0853715 C147.160087,41.0853715 146.561704,40.7043175 146.396814,39.7688707 C146.353989,39.5261964 146.337675,39.237784 146.335344,38.9607332 L146.329226,36.373761 C146.332139,35.8653977 146.368846,35.2882815 146.742326,34.9185892 C147.085508,34.5722029 147.642522,34.4565466 148.63536,34.4565466 L149.420483,34.4565466 C150.632981,34.4565466 151.336824,34.7799182 151.50754,35.7500327" id="Fill-62" fill="#000000" mask="url(#mask-4)"></path>
                        <polygon id="Fill-63" fill="#000000" mask="url(#mask-4)" points="152.831441 39.4571813 154.448007 39.4571813 154.434898 41.0854007 152.818331 41.0854007"></polygon>
                        <path d="M155.980817,39.5725463 C155.934205,39.3068573 155.91323,38.9258033 155.91323,38.3367427 L155.912064,36.8238884 C155.913521,35.9810831 155.957803,35.3803696 156.319629,35.0109686 C156.660772,34.6529293 157.217495,34.5375643 158.210624,34.5375643 L160.231259,34.5375643 L160.231259,35.7037411 L158.335603,35.7037411 C157.919881,35.7037411 157.674002,35.7500619 157.521639,35.9347624 C157.398117,36.0850864 157.354709,36.3621372 157.351213,36.8008736 L157.345096,38.3367427 C157.340143,38.833453 157.344804,39.1221568 157.381511,39.3301633 C157.468909,39.8268736 157.739259,39.9189326 158.501367,39.9189326 L160.231259,39.9189326 L160.231259,41.0854007 L158.325989,41.0854007 C156.859747,41.0854007 156.174549,40.6696789 155.980817,39.5725463" id="Fill-64" fill="#000000" mask="url(#mask-4)"></path>
                        <path d="M164.693553,39.9998628 C165.097622,39.9998628 165.359232,39.9768481 165.495573,39.7688416 C165.605694,39.6074471 165.662794,39.3414668 165.66629,38.9027303 L165.667164,37.2054668 C165.671825,36.7084651 165.655802,36.4197614 165.619095,36.2120462 C165.531406,35.7153358 165.259016,35.6116239 164.508561,35.6116239 L164.000489,35.6116239 C163.584768,35.6116239 163.329275,35.6693064 163.186817,35.8423538 C163.053681,36.0043309 163.021926,36.2813817 163.018139,36.7201182 L163.017265,38.417673 C163.012313,38.914092 163.017265,39.2030871 163.053972,39.4110936 C163.141661,39.9075126 163.412011,39.9998628 164.162466,39.9998628 L164.693553,39.9998628 Z M161.653278,39.6534766 C161.606375,39.3877876 161.585399,39.0064422 161.585399,38.417673 L161.586565,36.7201182 C161.585691,35.8653686 161.622689,35.2882524 161.996169,34.9185601 C162.33935,34.5721738 162.896074,34.4565175 163.889203,34.4565175 L164.685979,34.4565175 C166.152512,34.4565175 166.824018,34.8605863 167.019498,35.9693718 C167.066692,36.2350609 167.096699,36.6044619 167.099029,37.2054668 L167.097864,38.9027303 C167.096408,39.7455355 167.034646,40.3115813 166.686221,40.6926354 C166.356732,41.0506746 165.788355,41.1663309 164.795226,41.1663309 L163.99845,41.1663309 C162.531917,41.1663309 161.848758,40.7619709 161.653278,39.6534766 Z" id="Fill-65" fill="#000000" mask="url(#mask-4)"></path>
                        <path d="M177.50562,35.7154815 C177.566799,36.0618678 177.575247,36.5699398 177.569129,37.1240412 L177.563303,41.0854881 L176.131728,41.0854881 L176.132894,37.2283358 C176.135516,36.7202638 176.138429,36.408254 176.103761,36.2121918 C176.040543,35.8541525 175.822049,35.7271345 175.05965,35.7271345 L173.74344,35.7271345 L173.753054,41.0854881 L172.321188,41.0854881 L172.311574,35.7271345 L170.094877,35.7271345 L170.104491,41.0854881 L168.672625,41.0854881 L168.660972,34.5376517 L175.334953,34.5376517 C176.801195,34.5376517 177.354714,34.8607319 177.50562,35.7154815" id="Fill-66" fill="#000000" mask="url(#mask-4)"></path>
                    </g>
                    <g id="Group-70" transform="translate(0.000000, 0.060304)">
                        <mask id="mask-6" fill="white">
                            <use xlink:href="#path-5"></use>
                        </mask>
                        <g id="Clip-69"></g>
                        <path d="M12.0026187,0.231021277 C5.37350245,0.231021277 0,5.60481506 0,12.2336399 L0,35.4834697 C0,42.1125859 5.37350245,47.4860884 12.0026187,47.4860884 L35.2524484,47.4860884 C41.8812733,47.4860884 47.2550671,42.1125859 47.2550671,35.4834697 L47.2550671,12.2336399 C47.2550671,5.60481506 41.8812733,0.231021277 35.2524484,0.231021277 L12.0026187,0.231021277 Z" id="Fill-68" fill="url(#linearGradient-7)" mask="url(#mask-6)"></path>
                    </g>
                    <path d="M43.3892625,23.9206072 C43.3892625,34.8342504 34.5425751,43.6815205 23.6266013,43.6815205 C12.7123755,43.6815205 3.86481408,34.8342504 3.86481408,23.9206072 C3.86481408,13.0034681 12.7123755,4.15619804 23.6266013,4.15619804 C34.5425751,4.15619804 43.3892625,13.0034681 43.3892625,23.9206072" id="Fill-71" fill="#FFFFFF"></path>
                    <g id="Group-75" transform="translate(14.857610, 13.169961)">
                        <mask id="mask-9" fill="white">
                            <use xlink:href="#path-8"></use>
                        </mask>
                        <g id="Clip-74"></g>
                        <path d="M0.020101473,1.09218003 C0.0340851064,1.4036072 0.0996333879,1.8548707 0.684324059,2.47655974 C0.883008183,2.68660556 1.17870376,2.91704419 1.59442553,3.10407529 C2.00985597,2.92228805 2.30846481,2.69680196 2.51093617,2.48908674 C3.10436661,1.88079869 3.17574141,1.42574795 3.19351227,1.11461211 C3.21507038,0.728314239 3.02337807,0.258988543 2.44859247,0.254618658 C1.94226841,0.252288052 1.75756792,0.630428805 1.60695254,0.885338789 C1.46128969,0.630428805 1.28241571,0.247918167 0.775800327,0.242091653 C0.774343699,0.242091653 0.773178396,0.242091653 0.771721768,0.242091653 C0.200140753,0.242091653 0.00262193126,0.707047463 0.020101473,1.09218003" id="Fill-73" fill="url(#linearGradient-10)" mask="url(#mask-9)"></path>
                    </g>
                    <g id="Group-78" transform="translate(27.967267, 13.461286)">
                        <mask id="mask-12" fill="white">
                            <use xlink:href="#path-11"></use>
                        </mask>
                        <g id="Clip-77"></g>
                        <path d="M0.2199509,1.05692962 C0.231312602,1.36835679 0.296278232,1.8219509 0.882716858,2.44160065 C1.08110966,2.65048118 1.37826187,2.88179378 1.79107038,3.0667856 L1.79107038,3.0691162 L1.79107038,3.0667856 C2.20708347,2.88762029 2.50773159,2.66184288 2.70350245,2.45412766 C3.29955483,1.84583961 3.37005565,1.39078887 3.3910311,1.0793617 C3.41229787,0.693355155 3.22206219,0.22402946 2.64785925,0.219368249 C2.13891326,0.217037643 1.958,0.597509002 1.80621931,0.850379705 C1.65968249,0.594013093 1.48080851,0.212667758 0.972736498,0.20713257 C0.971279869,0.20713257 0.969823241,0.20713257 0.968366612,0.20713257 C0.399116203,0.20713257 0.199849427,0.668592471 0.2199509,1.05692962" id="Fill-76" fill="url(#linearGradient-13)" mask="url(#mask-12)"></path>
                    </g>
                    <g id="Group-81" transform="translate(7.865794, 15.209241)">
                        <mask id="mask-15" fill="white">
                            <use xlink:href="#path-14"></use>
                        </mask>
                        <g id="Clip-80"></g>
                        <path d="M10.3752733,0.216454992 C9.58345008,1.55247463 8.60255646,1.63958101 8.60255646,1.63958101 C8.60255646,1.63958101 7.37986252,1.39574141 6.81381669,0.216454992 L1.93818985,0.216454992 C0.954091653,0.216454992 0.150032733,1.06712602 0.150032733,2.12026841 L0.150032733,2.82323732 L0.150032733,2.82585925 C0.150032733,3.47901146 0.648782324,4.01155483 1.26260556,4.01155483 C1.87672013,4.01155483 2.37343044,3.47901146 2.37343044,2.82585925 L2.37343044,2.69796727 C2.37343044,2.3763437 2.61989198,2.11240262 2.92024877,2.11240262 L14.2536923,2.11240262 C14.2702979,2.11240262 14.2851555,2.11240262 14.2965172,2.1156072 C14.5881342,2.13046481 14.8206121,2.38420949 14.8206121,2.69796727 L14.8206121,2.70146318 L14.8206121,2.82323732 C14.8206121,3.47901146 15.3149918,4.01155483 15.931437,4.01155483 C16.5481735,4.01155483 17.0469231,3.47901146 17.0469231,2.82323732 L17.0469231,2.81566285 L17.0469231,2.30089034 C17.0469231,2.27933224 17.0440098,2.25806547 17.0440098,2.23767267 C17.0469231,2.19921768 17.0469231,2.16076268 17.0469231,2.12026841 C17.0469231,1.06712602 16.2457774,0.216454992 15.2584746,0.216454992 L10.3752733,0.216454992 Z" id="Fill-79" fill="url(#linearGradient-16)" mask="url(#mask-15)"></path>
                    </g>
                    <g id="Group-84" transform="translate(8.739771, 20.161777)">
                        <mask id="mask-18" fill="white">
                            <use xlink:href="#path-17"></use>
                        </mask>
                        <g id="Clip-83"></g>
                        <path d="M10.2339804,0.00728314239 L3.91687398,0.00728314239 L2.01335188,0.00728314239 L2.01335188,0.753076923 L2.01335188,0.913597381 L2.01335188,4.74977414 L8.12419967,4.74977414 C7.71022586,4.89427169 7.50950245,5.07343699 7.36646154,5.22492635 C7.21905074,5.37612439 7.09115876,5.54101473 6.98948609,5.69745663 L0.186157119,5.69745663 L0.186157119,11.152239 C0.186157119,11.8068478 0.696851064,12.3417218 1.32436661,12.3417218 C1.95770867,12.3417218 2.45937152,11.8068478 2.45937152,11.152239 L2.45937152,7.59486088 L6.13386252,7.59486088 C5.85011129,8.20110966 5.41224877,9.07129951 4.42756792,9.88934206 C4.09225205,10.1661015 3.50843535,10.4888903 3.16787561,10.6071686 C2.83401637,10.7245728 2.66184288,10.845473 2.65572504,10.9672471 C2.6484419,11.048527 2.75098854,11.1353421 2.95928642,11.225653 C3.17078887,11.3171293 3.81578396,11.3858822 4.19275941,11.3858822 C5.73969885,11.3858822 6.55599345,10.9876399 7.0870802,10.1433781 C7.64875614,9.25046481 7.94095581,8.57109329 8.2401473,7.59486088 L12.4969984,7.59486088 C12.5028249,7.59486088 12.5089427,7.59719149 12.5150606,7.59719149 C12.9893388,7.63098527 13.363401,8.04088052 13.363401,8.5451653 L13.363401,8.5632275 L13.363401,9.99101473 C13.363401,10.2619476 13.1504419,10.4807332 12.8902881,10.4807332 C12.8497938,10.4807332 12.8133781,10.4763633 12.7746318,10.4661669 C12.5479804,10.3974141 12.3341473,10.2415548 11.9568805,10.0268478 C11.7098363,9.88264157 11.5472766,10.1049231 11.5472766,10.2494206 C11.5472766,11.3555843 12.460874,12.3259902 13.5912177,12.3259902 C14.7180655,12.3259902 15.6325368,11.3724812 15.6325368,10.1966907 L15.6325368,7.60738789 C15.6325368,6.5554108 14.8174075,5.69745663 13.8076727,5.69745663 L8.62644517,5.69745663 C8.69519804,5.43730278 8.85630115,4.93709656 9.11179378,4.74977414 L11.2105041,4.74977414 L11.5472766,4.74977414 C12.8069689,4.74977414 13.8257349,3.69197054 13.8257349,2.3763437 C13.8257349,1.06246481 12.8069689,0.00728314239 11.5472766,0.00728314239 L10.2339804,0.00728314239 Z M4.27520458,1.90235679 L10.0763732,1.90235679 L11.0913519,1.90235679 C11.3436399,1.90235679 11.5472766,2.1156072 11.5472766,2.3763437 L11.5472766,2.37954828 C11.5472766,2.64261538 11.3436399,2.85586579 11.0913519,2.85586579 C10.98327,2.85586579 10.3432275,2.85790507 10.1037578,2.85790507 L4.27520458,2.85790507 L4.27520458,1.90235679 Z" id="Fill-82" fill="url(#linearGradient-19)" mask="url(#mask-18)"></path>
                    </g>
                    <g id="Group-87" transform="translate(24.762684, 15.500566)">
                        <mask id="mask-21" fill="white">
                            <use xlink:href="#path-20"></use>
                        </mask>
                        <g id="Clip-86"></g>
                        <path d="M6.85518494,0.142749591 C6.04326023,1.47906056 5.04168249,1.56471031 5.04168249,1.56471031 C5.04168249,1.56471031 3.79160393,1.32232733 3.21186579,0.142749591 L0.0576824877,0.142749591 C0.354834697,0.517394435 0.686072013,1.1291784 0.737345336,2.03986252 L10.8177971,2.03986252 C10.8367332,2.03986252 10.8515908,2.03986252 10.8655745,2.04452373 C11.1615614,2.05675941 11.3984092,2.31079542 11.3984092,2.62571849 L11.3984092,2.6280491 L11.3984092,2.74982324 C11.3984092,3.40676268 11.9067725,3.93959738 12.536036,3.93959738 C13.1658822,3.93959738 13.6730802,3.40676268 13.6730802,2.74982324 L13.6730802,2.74166612 L13.6759935,2.74166612 L13.6759935,2.22747627 C13.6759935,2.20708347 13.6730802,2.18436007 13.6719149,2.16280196 C13.6730802,2.1258036 13.6759935,2.08734861 13.6759935,2.04772831 C13.6759935,0.992837971 12.853581,0.142749591 11.8487987,0.142749591 L6.85518494,0.142749591 Z" id="Fill-85" fill="url(#linearGradient-22)" mask="url(#mask-21)"></path>
                    </g>
                    <g id="Group-90" transform="translate(23.888707, 20.161777)">
                        <mask id="mask-24" fill="white">
                            <use xlink:href="#path-23"></use>
                        </mask>
                        <g id="Clip-89"></g>
                        <path d="M0.493797054,0.905731588 L0.493797054,4.8354239 L6.50355483,4.8354239 C6.09657283,4.97555155 5.89905401,5.15471686 5.75863502,5.30271031 C5.61588543,5.45157774 5.49003273,5.61413748 5.39069067,5.76883142 L0.433783961,5.76883142 C0.77288707,6.17523077 1.16268085,6.82430442 1.12102128,7.63535516 L4.54992471,7.63535516 C4.26675614,8.23140753 3.83879869,9.08586579 2.86868412,9.88934206 C2.53628151,10.1637709 1.96207856,10.4807332 1.62996727,10.5993028 C1.2993126,10.7143764 1.13296563,10.832946 1.12509984,10.9526809 C1.12102128,11.0304648 1.22036334,11.1140753 1.42487398,11.2032209 C1.6314239,11.2946972 2.26797054,11.3622848 2.64086743,11.3622848 C4.16100491,11.3622848 4.9612766,10.9727823 5.48420622,10.1413388 C6.03859902,9.26415712 6.32613748,8.59381669 6.62037643,7.63535516 L10.8058527,7.63535516 C10.8113879,7.63535516 10.818671,7.63768576 10.8247889,7.63768576 C11.2897447,7.67060556 11.6588543,8.0746743 11.6588543,8.56876268 L11.6588543,8.58682488 L11.6588543,9.99101473 C11.6588543,10.259617 11.4496825,10.4763633 11.1944812,10.4763633 C11.1516563,10.4763633 11.1172799,10.4684975 11.0811555,10.4583011 C10.8565434,10.389257 10.6462062,10.2368936 10.2753486,10.0236432 C10.0338396,9.88468085 9.87331915,10.1025925 9.87331915,10.2450507 L9.87127987,10.2450507 C9.87127987,11.3351915 10.7729329,12.2887005 11.8808445,12.2887005 C12.9913781,12.2887005 13.8892439,11.3509231 13.8892439,10.1885336 C13.8892439,10.1285205 13.8930311,7.74168903 13.8930311,7.65021277 C13.8930311,6.61076268 13.0878069,5.76883142 12.0938036,5.76883142 L7.00055646,5.76883142 C7.06552209,5.51042553 7.22225532,5.02070704 7.47745663,4.8354239 L9.54179051,4.8354239 L9.87127987,4.8354239 C11.1094141,4.8354239 12.1168183,3.79830442 12.1168183,2.50277905 C12.1168183,1.20929296 11.1094141,0.169842881 9.87127987,0.169842881 L8.58187234,0.169842881 L2.364982,0.169842881 C2.40489362,0.143332242 2.39120131,0.131679214 2.33730606,0.131679214 C1.90148282,0.131679214 -1.16792471,0.905731588 0.493797054,0.905731588 Z M2.71806874,2.03665794 L8.42426514,2.03665794 L9.42089034,2.03665794 C9.67084779,2.03665794 9.86953191,2.24175123 9.86953191,2.50044845 L9.87127987,2.50277905 C9.86953191,2.76438953 9.67084779,2.97210475 9.42089034,2.97210475 C9.31892635,2.97210475 8.68471031,2.97560065 8.4487365,2.97560065 L2.71806874,2.97560065 L2.71806874,2.03665794 Z" id="Fill-88" fill="url(#linearGradient-25)" mask="url(#mask-24)"></path>
                    </g>
                    <g id="Group-93" transform="translate(8.448445, 17.539846)">
                        <mask id="mask-27" fill="white">
                            <use xlink:href="#path-26"></use>
                        </mask>
                        <g id="Clip-92"></g>
                        <path d="M16.4339738,1.93731588 C14.5153028,3.12709002 10.782838,1.21511948 9.75183633,0.902527005 C9.22220622,0.743171849 6.87295581,-0.18207856 4.55633388,0.568376432 C3.81694926,0.808720131 3.08164321,1.21948936 2.40838953,1.88225532 C2.40838953,1.88225532 1.72027823,2.87305401 0.264815057,2.71865139 C0.264815057,2.71865139 -0.0434075286,3.01289034 0.504576105,3.25352537 C0.504576105,3.25352537 0.790657938,3.47114566 1.34097218,3.56029133 C1.50615385,3.58651064 1.69580687,3.59874632 1.91022259,3.59088052 C2.71777741,3.56495254 3.86734861,3.22847136 5.32339444,2.05151555 C8.42688707,-0.456216039 9.74222259,1.61802291 11.5758265,2.42266448 C13.4452635,3.24303764 15.9427987,5.12674959 18.7870115,1.93731588 C21.4211784,-1.01847463 24.3184124,1.87438953 25.1446121,2.37284779 C26.0343208,2.90568249 26.6265859,3.3831653 28.999725,3.36510311 C28.999725,3.36510311 27.132036,2.39440589 28.2166416,2.10220622 C28.9321375,1.91022259 25.3217381,0.743171849 22.0198527,0.322206219 C21.5094501,0.256657938 21.0884845,0.206258592 20.6838331,0.206258592 C19.6085499,0.206258592 18.6497971,0.562841244 16.4339738,1.93731588" id="Fill-91" fill="url(#linearGradient-28)" mask="url(#mask-27)"></path>
                    </g>
                    <g id="Group-96" transform="translate(17.188216, 28.901548)">
                        <mask id="mask-30" fill="white">
                            <use xlink:href="#path-29"></use>
                        </mask>
                        <g id="Clip-95"></g>
                        <path d="M0.123813421,1.20608838 C0.123813421,1.81641571 0.600713584,2.31429133 1.18569558,2.31429133 C1.77475614,2.31429133 2.25078232,1.81641571 2.25078232,1.20608838 C2.25078232,0.591973813 1.77475614,0.0932242226 1.18569558,0.0932242226 C0.600713584,0.0932242226 0.123813421,0.591973813 0.123813421,1.20608838" id="Fill-94" fill="url(#linearGradient-31)" mask="url(#mask-30)"></path>
                    </g>
                    <g id="Group-99" transform="translate(30.880524, 28.901548)">
                        <mask id="mask-33" fill="white">
                            <use xlink:href="#path-32"></use>
                        </mask>
                        <g id="Clip-98"></g>
                        <path d="M0.244713584,1.20608838 C0.244713584,1.81641571 0.721322422,2.31429133 1.3071784,2.31429133 C1.89653028,2.31429133 2.37109984,1.81641571 2.37109984,1.20608838 C2.37109984,0.591973813 1.89653028,0.0932242226 1.3071784,0.0932242226 C0.721322422,0.0932242226 0.244713584,0.591973813 0.244713584,1.20608838" id="Fill-97" fill="url(#linearGradient-34)" mask="url(#mask-33)"></path>
                    </g>
                </g>
            </g>
        </g>
    </g>
</svg>